<svg width="28" height="29" viewBox="0 0 28 29" fill="none" xmlns="http://www.w3.org/2000/svg">
<path d="M24.7917 0.625C25.6094 0.625 26.3937 0.94985 26.9719 1.52809C27.5501 2.10632 27.875 2.89058 27.875 3.70833V25.2917C27.875 26.1094 27.5501 26.8937 26.9719 27.4719C26.3937 28.0501 25.6094 28.375 24.7917 28.375H3.20833C2.39058 28.375 1.60632 28.0501 1.02809 27.4719C0.44985 26.8937 0.125 26.1094 0.125 25.2917V3.70833C0.125 2.89058 0.44985 2.10632 1.02809 1.52809C1.60632 0.94985 2.39058 0.625 3.20833 0.625H24.7917ZM24.0208 24.5208V16.35C24.0208 15.0171 23.4913 13.7387 22.5488 12.7962C21.6063 11.8537 20.3279 11.3242 18.995 11.3242C17.6846 11.3242 16.1583 12.1258 15.4183 13.3283V11.6171H11.1171V24.5208H15.4183V16.9204C15.4183 15.7333 16.3742 14.7621 17.5613 14.7621C18.1337 14.7621 18.6827 14.9895 19.0874 15.3942C19.4922 15.799 19.7196 16.348 19.7196 16.9204V24.5208H24.0208ZM6.10667 9.19667C6.79358 9.19667 7.45235 8.92379 7.93807 8.43807C8.42379 7.95235 8.69667 7.29358 8.69667 6.60667C8.69667 5.17292 7.54042 4.00125 6.10667 4.00125C5.41567 4.00125 4.75297 4.27575 4.26436 4.76436C3.77575 5.25297 3.50125 5.91567 3.50125 6.60667C3.50125 8.04042 4.67292 9.19667 6.10667 9.19667ZM8.24958 24.5208V11.6171H3.97917V24.5208H8.24958Z" fill="white"/>
</svg>
