<svg width="34" height="33" viewBox="0 0 34 33" fill="none" xmlns="http://www.w3.org/2000/svg">
<path d="M17 11.1119C14.0169 11.1119 11.6119 13.54 11.6119 16.5C11.6119 19.46 14.04 21.8881 17 21.8881C19.96 21.8881 22.3881 19.46 22.3881 16.5C22.3881 13.54 19.96 11.1119 17 11.1119ZM33.1875 16.5C33.1875 14.2569 33.1875 12.06 33.0719 9.81688C32.9562 7.22688 32.355 4.91438 30.4587 3.04125C28.5625 1.145 26.2731 0.54375 23.6831 0.428125C21.44 0.3125 19.2431 0.3125 17 0.3125C14.7569 0.3125 12.56 0.3125 10.3169 0.428125C7.72687 0.54375 5.41437 1.145 3.54125 3.04125C1.645 4.9375 1.04375 7.22688 0.928125 9.81688C0.8125 12.06 0.8125 14.2569 0.8125 16.5C0.8125 18.7431 0.8125 20.94 0.928125 23.1831C1.04375 25.7731 1.645 28.0856 3.54125 29.9587C5.4375 31.855 7.72687 32.4562 10.3169 32.5719C12.56 32.6875 14.7569 32.6875 17 32.6875C19.2431 32.6875 21.44 32.6875 23.6831 32.5719C26.2731 32.4562 28.5856 31.855 30.4587 29.9587C32.355 28.0625 32.9562 25.7731 33.0719 23.1831C33.2106 20.9631 33.1875 18.7431 33.1875 16.5ZM17 24.8019C12.3981 24.8019 8.69812 21.1019 8.69812 16.5C8.69812 11.8981 12.3981 8.19812 17 8.19812C21.6019 8.19812 25.3019 11.8981 25.3019 16.5C25.3019 21.1019 21.6019 24.8019 17 24.8019ZM25.6487 9.79375C24.585 9.79375 23.7062 8.93813 23.7062 7.85125C23.7062 6.76438 24.5619 5.90875 25.6487 5.90875C26.7356 5.90875 27.5912 6.76438 27.5912 7.85125C27.5971 8.10455 27.5509 8.35636 27.4554 8.59105C27.3599 8.82575 27.2173 9.03833 27.0362 9.21562C26.859 9.39663 26.6464 9.5393 26.4117 9.63476C26.177 9.73023 25.9252 9.77648 25.6719 9.77063L25.6487 9.79375Z" fill="white"/>
</svg>
