<svg width="32" height="31" viewBox="0 0 32 31" fill="none" xmlns="http://www.w3.org/2000/svg">
<path d="M29.875 9.33333V21.6667C29.875 23.711 29.0629 25.6717 27.6173 27.1173C26.1717 28.5629 24.211 29.375 22.1667 29.375H9.83333C7.78896 29.375 5.82831 28.5629 4.38272 27.1173C2.93713 25.6717 2.125 23.711 2.125 21.6667V9.33333C2.125 7.28896 2.93713 5.32831 4.38272 3.88272C5.82831 2.43713 7.78896 1.625 9.83333 1.625H22.1667C24.211 1.625 26.1717 2.43713 27.6173 3.88272C29.0629 5.32831 29.875 7.28896 29.875 9.33333Z" stroke="white" stroke-width="2.3125" stroke-linecap="round" stroke-linejoin="round"/>
<path d="M12.917 15.5C12.0023 15.5 11.1081 15.7713 10.3475 16.2795C9.5869 16.7877 8.99411 17.51 8.64405 18.3551C8.294 19.2002 8.20241 20.1301 8.38086 21.0273C8.55932 21.9245 8.99981 22.7486 9.64663 23.3954C10.2934 24.0422 11.1175 24.4827 12.0147 24.6611C12.9119 24.8396 13.8418 24.748 14.6869 24.3979C15.532 24.0479 16.2543 23.4551 16.7625 22.6945C17.2707 21.9339 17.542 21.0397 17.542 20.125V6.25C18.0554 7.79167 20.0087 10.875 23.7087 10.875" stroke="white" stroke-width="2.3125" stroke-linecap="round" stroke-linejoin="round"/>
</svg>
