<svg width="32" height="23" viewBox="0 0 32 23" fill="none" xmlns="http://www.w3.org/2000/svg">
<path d="M12.9163 16.125L20.9176 11.5L12.9163 6.87504V16.125ZM30.738 4.05379C30.9384 4.77837 31.0772 5.74962 31.1697 6.98296C31.2776 8.21629 31.3238 9.28004 31.3238 10.205L31.4163 11.5C31.4163 14.8763 31.1697 17.3584 30.738 18.9463C30.3526 20.3338 29.4584 21.228 28.0709 21.6134C27.3463 21.8138 26.0205 21.9525 23.9855 22.045C21.9813 22.153 20.1468 22.1992 18.4509 22.1992L15.9997 22.2917C9.54009 22.2917 5.51634 22.045 3.92842 21.6134C2.54092 21.228 1.64676 20.3338 1.26134 18.9463C1.06092 18.2217 0.922175 17.2505 0.829675 16.0171C0.721758 14.7838 0.675508 13.72 0.675508 12.795L0.583008 11.5C0.583008 8.12379 0.829675 5.64171 1.26134 4.05379C1.64676 2.66629 2.54092 1.77212 3.92842 1.38671C4.65301 1.18629 5.97884 1.04754 8.01384 0.95504C10.018 0.847124 11.8526 0.800874 13.5484 0.800874L15.9997 0.708374C22.4593 0.708374 26.483 0.955041 28.0709 1.38671C29.4584 1.77212 30.3526 2.66629 30.738 4.05379Z" fill="white"/>
</svg>
